<?xml version="1.0" standalone="no"?>
<!DOCTYPE svg PUBLIC "-//W3C//DTD SVG 20010904//EN"
 "http://www.w3.org/TR/2001/REC-SVG-20010904/DTD/svg10.dtd">
<svg version="1.0" xmlns="http://www.w3.org/2000/svg"
 width="600.000000pt" height="600.000000pt" viewBox="0 0 600.000000 600.000000"
 preserveAspectRatio="xMidYMid meet">
<metadata>
Created by potrace 1.14, written by Peter Selinger 2001-2017
</metadata>
<g transform="translate(0.000000,600.000000) scale(0.100000,-0.100000)"
fill="#000000" stroke="none">
<path d="M0 3000 l0 -3000 3000 0 3000 0 0 3000 0 3000 -3000 0 -3000 0 0
-3000z m2749 2666 c6 -7 14 -47 17 -90 6 -62 9 -74 20 -65 20 16 17 -1 -3 -23
-15 -17 -15 -19 3 -32 10 -8 16 -18 11 -22 -4 -4 -13 -2 -19 4 -20 20 -28 13
-28 -25 0 -75 -15 -17 -25 95 l-10 117 -35 -139 -35 -138 -47 -18 c-25 -10
-78 -25 -118 -35 l-71 -17 -34 -69 c-35 -68 -35 -69 -35 -207 0 -124 3 -145
25 -202 22 -56 25 -79 25 -191 0 -120 2 -134 34 -222 l33 -94 -20 -38 c-18
-37 -19 -51 -12 -228 l7 -189 -22 12 c-11 6 -26 22 -32 36 -10 21 -16 24 -37
17 -64 -20 -153 -8 -303 40 l-148 48 0 103 c0 62 6 119 14 142 7 22 19 116 26
209 7 94 17 175 21 181 5 6 16 32 23 58 13 43 13 57 -6 144 -23 108 -37 145
-38 98 0 -20 -3 -27 -10 -20 -5 5 -16 81 -24 168 -8 87 -16 160 -18 162 -2 2
-14 -49 -27 -114 -12 -64 -25 -125 -27 -134 -10 -34 -22 -18 -29 39 -12 96
-21 106 -35 41 l-13 -58 -59 0 c-62 0 -57 3 -160 -80 -4 -3 -10 -25 -13 -49
-3 -24 -11 -55 -18 -69 -9 -18 -14 -82 -15 -195 -2 -131 -7 -184 -22 -238
l-19 -69 28 -116 c24 -99 26 -116 14 -121 -24 -10 -224 5 -281 20 -29 8 -77
31 -107 52 -33 22 -71 39 -96 42 -29 4 -64 21 -108 54 -86 61 -195 116 -248
123 -38 6 -47 3 -80 -27 -21 -19 -59 -44 -86 -56 -67 -32 -99 -69 -121 -139
-25 -81 -17 -121 40 -205 72 -104 116 -126 328 -157 77 -11 135 -25 145 -34 9
-8 43 -18 74 -22 47 -6 67 -15 115 -52 88 -69 113 -82 160 -82 24 0 89 -16
145 -35 56 -19 109 -35 118 -35 23 0 27 -47 38 -425 5 -170 10 -341 12 -380 2
-59 25 303 28 444 1 36 4 43 14 33 9 -10 13 -97 18 -335 4 -232 9 -332 19
-357 8 -21 14 -84 15 -160 3 -218 41 -720 55 -720 10 0 41 353 40 475 0 78 5
137 15 169 8 27 15 90 16 140 1 134 16 69 19 -84 3 -116 3 -120 10 -55 4 39
13 214 20 390 11 299 14 325 37 395 18 52 29 111 34 190 14 188 20 231 34 236
19 8 163 -15 202 -31 19 -8 38 -27 48 -49 27 -56 98 -91 247 -121 56 -11 68
-38 68 -154 0 -58 5 -124 11 -146 13 -48 24 -221 38 -600 12 -297 17 -371 20
-265 1 46 4 61 11 50 5 -8 10 -98 10 -201 0 -214 8 -311 24 -306 16 5 45 318
51 564 4 143 10 226 20 252 9 27 16 113 20 273 6 241 23 445 37 454 4 3 8 -46
9 -108 2 -339 4 -426 11 -422 4 3 8 35 9 72 1 91 33 469 40 477 4 3 29 8 57
12 61 7 74 -1 108 -69 24 -47 26 -49 59 -42 28 5 36 2 50 -20 19 -29 14 -56
-10 -56 -22 0 -9 -19 21 -30 18 -7 35 -3 77 19 63 33 197 52 222 31 19 -16 21
-245 3 -331 -10 -48 -9 -88 6 -226 10 -92 21 -188 24 -213 7 -44 7 -43 13 30
4 41 7 112 8 157 0 45 5 84 11 88 5 3 16 -8 25 -24 11 -23 15 -63 15 -163 0
-73 3 -212 7 -308 l7 -175 12 90 c7 50 13 136 13 192 1 78 6 112 21 148 18 42
20 69 20 288 0 192 3 252 16 299 9 32 21 58 27 58 5 0 24 -9 42 -20 30 -18 39
-19 106 -9 64 9 86 8 159 -10 46 -11 86 -24 88 -30 6 -18 37 -13 109 20 67 30
116 39 131 25 13 -14 15 -210 2 -338 -12 -123 -12 -130 9 -178 18 -41 23 -82
31 -242 5 -106 10 -237 10 -290 0 -59 4 -98 10 -98 6 0 10 21 10 47 0 91 22
278 37 318 11 27 17 90 21 193 2 84 9 155 13 158 5 3 9 -41 10 -98 1 -57 4
-141 8 -188 l8 -85 2 80 c1 44 8 190 15 324 10 179 11 261 4 308 -6 35 -9 66
-6 69 8 7 197 -32 294 -61 60 -18 90 -34 117 -60 40 -39 57 -38 57 3 0 17 -13
40 -37 65 l-38 39 47 -6 c27 -4 118 -25 204 -47 86 -21 170 -39 186 -39 21 0
39 -10 62 -36 l34 -37 88 7 c67 5 101 3 138 -9 65 -20 249 -21 265 -1 18 22
-13 39 -85 47 -56 6 -69 11 -107 46 -60 56 -194 107 -258 98 -40 -6 -50 -3
-76 19 -18 15 -43 26 -61 26 -16 0 -41 10 -56 21 -38 30 -167 69 -246 75 -102
8 -110 11 -126 49 -14 35 -36 45 -50 24 -10 -16 -106 -2 -169 26 -38 17 -69
23 -107 22 -73 -3 -92 13 -82 66 3 22 13 55 20 73 10 25 14 87 14 243 0 177 3
217 17 253 l18 43 7 -50 c3 -27 7 -87 7 -132 1 -46 5 -83 10 -83 5 0 8 12 7
28 0 15 5 176 13 359 11 264 12 337 2 361 -11 25 -10 35 4 62 12 23 13 35 5
45 -6 7 -8 29 -4 51 5 32 -1 54 -29 115 -31 69 -39 78 -90 107 -30 17 -58 36
-61 41 -4 5 -11 58 -18 118 -6 59 -14 111 -17 115 -4 4 -15 -46 -25 -112 -10
-66 -22 -123 -28 -126 -17 -11 -28 11 -35 65 -7 60 -22 51 -24 -14 0 -37 -17
-96 -18 -67 -2 26 -19 10 -25 -24 -4 -19 -18 -44 -30 -55 -34 -30 -54 -150
-37 -222 8 -34 11 -86 7 -147 -17 -265 -17 -407 -2 -490 19 -98 26 -111 26
-47 0 54 16 70 31 30 7 -20 6 -75 -4 -198 -7 -93 -12 -200 -10 -237 3 -38 1
-68 -3 -68 -11 0 -72 20 -116 38 -20 8 -44 12 -53 9 -25 -10 -64 10 -70 36 -6
23 -12 24 -98 30 -51 3 -110 11 -132 19 l-40 13 1 60 c5 335 15 626 23 655 6
26 10 -12 11 -140 1 -96 5 -202 9 -235 l7 -60 6 40 c4 22 13 192 19 378 11
280 10 346 -1 380 -7 24 -15 107 -17 189 -4 138 -3 153 22 234 27 89 27 94 4
206 -8 36 -15 47 -33 52 -17 4 -30 22 -47 63 -22 55 -23 56 -32 30 -10 -32
-12 -33 -61 -4 -34 19 -42 29 -51 72 l-11 50 -14 -58 c-17 -74 -27 -58 -36 56
-4 48 -10 85 -14 80 -4 -4 -15 -62 -24 -128 -16 -109 -20 -123 -52 -162 -19
-23 -37 -57 -40 -75 -3 -18 -12 -50 -20 -71 -9 -25 -12 -55 -8 -90 3 -29 2
-68 -4 -88 -7 -26 -6 -42 3 -60 16 -29 36 -397 35 -634 0 -116 4 -173 15 -209
11 -37 15 -97 15 -243 0 -106 -4 -193 -9 -193 -10 0 -50 30 -102 76 -20 18
-52 35 -70 39 -19 4 -41 13 -49 21 -8 7 -47 28 -85 46 -55 26 -83 33 -130 33
l-60 0 -2 195 c-1 107 -4 285 -8 395 -4 156 -3 210 8 245 l14 45 9 -135 9
-135 7 210 c5 154 11 222 23 255 12 35 15 66 10 140 -14 239 -19 266 -46 290
-13 11 -19 36 -23 91 l-6 77 25 -12 c21 -9 25 -18 25 -52 0 -25 7 -51 18 -65
29 -38 32 -53 47 -249 13 -177 13 -187 -5 -240 -16 -45 -21 -96 -27 -285 -8
-228 -8 -230 -31 -240 -20 -9 -23 -15 -17 -45 4 -19 9 -126 12 -237 l4 -203
44 0 c44 0 151 -41 203 -79 15 -10 41 -22 58 -25 18 -4 50 -23 73 -42 l41 -36
0 127 c0 94 -5 147 -20 205 -17 66 -20 110 -19 272 0 248 -15 547 -29 575 -15
28 -5 232 14 292 8 25 14 55 14 67 0 12 15 41 34 63 41 49 40 45 62 196 17
125 31 155 69 155 31 0 45 -19 45 -62 0 -31 4 -38 19 -38 26 0 39 -19 52 -78
12 -58 21 -69 39 -47 15 18 64 20 78 3 5 -7 16 -32 22 -55 8 -24 21 -45 31
-48 28 -9 41 -31 55 -98 19 -87 17 -142 -7 -217 -13 -41 -22 -107 -26 -181 -5
-102 -3 -123 16 -181 21 -64 22 -72 12 -274 -6 -115 -13 -292 -17 -393 -7
-184 -7 -184 -35 -216 -27 -30 -29 -38 -29 -118 0 -54 4 -88 12 -93 6 -4 61
-10 122 -13 l111 -6 15 -32 c12 -25 19 -31 38 -26 12 3 40 -2 62 -11 22 -9 44
-16 49 -16 4 0 11 66 14 147 5 133 4 150 -12 168 -44 49 -69 438 -36 549 19
63 19 129 0 192 -8 27 -15 65 -15 84 1 60 27 160 48 183 11 12 26 42 33 67 7
25 21 56 31 69 11 14 18 41 18 66 0 50 18 69 59 63 28 -4 30 -2 36 41 9 64 30
93 62 89 14 -2 30 -10 34 -18 4 -8 13 -70 20 -137 l12 -123 56 -32 c50 -29 60
-41 92 -107 30 -62 38 -90 43 -163 4 -58 3 -95 -4 -109 -8 -15 -8 -24 0 -34
18 -21 -18 -795 -38 -815 -11 -11 -16 -12 -19 -3 -4 10 -8 9 -19 -1 -10 -11
-14 -41 -14 -111 0 -62 -5 -108 -15 -132 -25 -60 -22 -63 50 -63 46 0 78 -6
104 -20 49 -25 116 -36 125 -21 4 6 22 11 41 11 24 0 39 -7 54 -26 12 -15 21
-32 21 -39 0 -17 26 -26 54 -19 26 6 192 -31 251 -56 22 -10 46 -25 54 -34 7
-9 27 -16 43 -16 16 0 41 -9 55 -20 19 -15 41 -20 86 -20 77 0 200 -47 260
-100 35 -31 52 -38 101 -43 76 -8 110 -31 114 -80 3 -32 -1 -39 -30 -57 -30
-19 -44 -21 -153 -17 -71 3 -137 11 -161 20 -30 11 -53 13 -85 6 -24 -4 -64
-8 -88 -9 -39 0 -48 5 -81 40 -29 32 -44 40 -71 40 -19 0 -87 14 -153 30 -65
17 -120 30 -122 30 -2 0 -4 -17 -4 -37 0 -76 -70 -99 -131 -42 -43 40 -74 53
-202 84 -136 33 -137 33 -130 -10 9 -53 -28 -728 -40 -743 -6 -8 -23 -12 -37
-10 l-27 4 -13 -173 c-8 -104 -17 -177 -24 -182 -17 -14 -54 -9 -70 9 -11 11
-17 88 -26 310 -11 279 -13 298 -37 357 -26 62 -26 63 -13 185 6 68 10 166 8
219 l-3 96 -75 -33 c-81 -36 -131 -42 -150 -19 -22 27 -93 39 -222 40 l-126 0
-11 -36 c-7 -22 -11 -133 -11 -278 0 -192 -3 -249 -15 -278 -8 -19 -15 -65
-15 -102 0 -89 -30 -353 -43 -369 -5 -6 -20 -12 -32 -12 -43 0 -50 23 -53 187
-4 152 -4 153 -27 153 -12 0 -27 6 -33 13 -6 7 -23 122 -38 257 -23 207 -25
252 -16 300 7 31 12 109 12 173 l0 117 -48 0 c-35 0 -67 -9 -111 -31 -50 -25
-71 -30 -103 -26 -44 6 -88 40 -88 69 0 11 -14 31 -30 45 -17 14 -40 43 -51
64 -16 32 -25 39 -49 39 -17 0 -30 -5 -30 -12 -1 -7 -11 -135 -24 -285 -21
-258 -30 -303 -57 -303 -4 0 -10 15 -12 33 -2 17 -5 0 -5 -39 -1 -42 -10 -95
-23 -130 -17 -51 -19 -74 -14 -169 4 -76 -2 -187 -18 -363 -12 -138 -20 -252
-16 -252 3 0 86 9 185 20 98 11 205 20 237 20 88 0 205 -28 280 -67 146 -77
217 -210 217 -404 0 -271 -177 -449 -445 -449 -119 0 -261 45 -322 102 -13 12
-25 20 -27 17 -3 -4 42 -271 47 -275 1 -1 58 -36 127 -78 114 -69 121 -76 90
-76 -48 0 -751 68 -757 73 -2 2 20 21 50 41 l53 37 58 435 c35 258 54 440 49
445 -5 5 -60 31 -123 58 -63 27 -108 52 -100 55 8 2 68 10 133 17 l118 12 -7
156 c-4 86 -11 162 -17 169 -7 9 -14 124 -19 295 -4 155 -13 325 -19 377 -6
52 -9 120 -7 150 3 33 -2 90 -14 143 -12 59 -17 119 -16 183 3 107 2 109 -72
120 -106 16 -202 71 -236 135 -14 29 -41 40 -130 54 l-42 6 -6 -43 c-4 -24
-11 -95 -15 -158 -6 -82 -15 -135 -33 -186 -24 -66 -27 -92 -42 -435 -20 -454
-21 -469 -40 -488 -15 -14 -16 -13 -16 6 0 12 -4 24 -9 27 -13 8 -24 -85 -17
-141 3 -27 -5 -140 -17 -253 l-23 -205 31 -65 c28 -60 30 -73 30 -175 0 -97
-3 -116 -26 -165 -50 -106 -162 -188 -312 -227 -37 -10 -67 -20 -67 -23 0 -3
99 -72 220 -155 121 -82 216 -152 212 -156 -11 -10 -522 -178 -522 -172 0 4
14 31 30 60 l31 54 -151 184 c-132 161 -155 185 -186 191 -19 3 -37 4 -39 2
-3 -2 0 -66 7 -142 l11 -137 88 -77 c48 -42 86 -78 84 -80 -2 -2 -152 14 -335
35 l-332 37 25 21 c13 11 38 31 55 45 l31 25 56 425 c30 234 55 430 55 436 0
7 -54 36 -120 64 -66 29 -119 55 -116 57 4 4 544 68 707 83 127 12 261 0 347
-31 32 -11 64 -22 73 -25 14 -5 14 10 -2 158 -9 90 -20 262 -23 383 -8 249
-27 385 -56 385 -10 0 -22 6 -29 13 -7 9 -14 146 -21 388 -6 206 -13 403 -16
439 l-7 65 -106 34 c-58 19 -120 33 -137 32 -44 -3 -88 18 -172 83 -61 47 -79
56 -113 56 -24 0 -55 8 -74 20 -21 13 -71 25 -143 34 -193 26 -242 46 -319
130 -97 105 -119 185 -83 294 27 82 64 123 150 167 36 18 76 45 89 59 27 29
71 34 147 16 43 -10 166 -77 248 -135 31 -23 60 -35 81 -35 21 0 52 -14 91
-40 33 -22 80 -44 109 -50 57 -12 208 -30 213 -25 2 1 -6 39 -17 83 -26 100
-26 124 -1 214 16 59 20 104 20 238 1 124 4 171 15 190 8 14 14 43 15 66 0 39
4 44 71 97 65 51 77 57 119 57 47 0 48 0 55 38 10 59 32 85 66 80 27 -4 29 -2
40 51 7 31 19 64 27 74 18 20 55 23 69 5 6 -7 15 -77 21 -156 10 -120 15 -146
31 -160 12 -11 26 -51 40 -120 26 -129 26 -167 0 -238 -12 -31 -23 -78 -25
-103 -2 -25 -8 -100 -12 -166 -5 -66 -17 -142 -26 -169 -9 -27 -16 -75 -16
-107 l0 -58 133 -43 c135 -43 205 -51 286 -33 l33 8 -7 130 c-6 112 -5 135 10
168 18 38 17 40 -9 111 -23 65 -26 88 -26 200 0 116 -3 133 -30 208 -28 77
-30 89 -30 228 l1 147 42 80 42 80 80 21 c154 41 143 30 182 184 19 74 39 141
45 148 14 16 53 15 67 -2z m41 -316 c0 -16 -4 -30 -10 -30 -5 0 -10 14 -10 30
0 17 5 30 10 30 6 0 10 -13 10 -30z m1419 -1966 c1 -68 -1 -124 -6 -124 -4 0
-14 4 -22 9 -14 9 -14 19 5 205 10 91 21 48 23 -90z m669 -1679 c67 -16 148
-53 198 -91 l32 -23 22 60 c13 33 24 58 26 56 2 -2 21 -96 42 -210 l39 -207
-52 49 c-61 58 -91 75 -167 91 -80 18 -156 1 -208 -47 -48 -43 -63 -87 -58
-169 13 -203 245 -267 499 -138 l49 24 -6 -27 c-3 -16 -22 -138 -43 -273 -21
-135 -40 -236 -43 -225 -4 11 -12 59 -19 108 l-12 88 -29 -35 c-76 -93 -239
-194 -363 -226 -234 -60 -445 21 -592 227 -74 104 -105 197 -111 328 -8 194
46 335 176 465 125 125 280 188 472 189 47 0 113 -6 148 -14z"/>
<path d="M2838 1519 c-15 -6 -29 -18 -32 -27 -17 -58 -67 -314 -63 -318 10
-10 111 62 155 110 24 26 50 63 58 81 19 47 18 129 -2 149 -17 18 -74 20 -116
5z"/>
<path d="M1010 1423 c0 -5 -7 -66 -15 -137 -9 -71 -12 -133 -8 -136 13 -11 74
-30 98 -30 37 0 77 53 83 108 5 55 -13 99 -56 139 -31 29 -102 67 -102 56z"/>
</g>
</svg>
